<?xml version="1.0" standalone="no"?>
<!DOCTYPE svg PUBLIC "-//W3C//DTD SVG 20010904//EN"
 "http://www.w3.org/TR/2001/REC-SVG-20010904/DTD/svg10.dtd">
<svg version="1.0" xmlns="http://www.w3.org/2000/svg"
 width="512.000000pt" height="512.000000pt" viewBox="0 0 512.000000 512.000000"
 preserveAspectRatio="xMidYMid meet">
<metadata>
Created by potrace 1.11, written by Peter Selinger 2001-2013
</metadata>
<g transform="translate(0.000000,512.000000) scale(0.100000,-0.100000)"
fill="#000000" stroke="none">
<path d="M2511 4091 c-39 -19 -88 -97 -286 -452 l-132 -236 -114 89 c-164 128
-363 277 -442 331 -87 60 -132 64 -181 15 -29 -30 -34 -43 -45 -128 -8 -52
-15 -104 -17 -115 -4 -27 -11 -93 -20 -185 -4 -41 -8 -82 -10 -90 -1 -8 -3
-30 -3 -47 -1 -31 -2 -32 -28 -22 -15 6 -60 25 -99 44 -164 78 -439 182 -499
188 -43 5 -88 -21 -110 -64 -20 -37 -15 -72 18 -139 20 -42 22 -56 18 -200 -6
-295 -6 -535 1 -600 7 -57 12 -91 34 -215 3 -16 26 -90 50 -164 127 -387 355
-679 644 -826 84 -42 211 -85 298 -101 12 -2 34 -6 50 -9 15 -3 78 -7 140 -10
88 -4 122 -10 154 -26 172 -88 308 -112 618 -112 190 0 301 6 358 17 74 15
185 51 251 82 68 31 87 35 176 39 126 5 167 11 285 41 182 47 366 156 508 303
73 75 197 253 239 341 105 221 145 345 179 556 19 115 24 390 12 649 -7 139 2
227 25 254 24 27 30 75 13 114 -18 45 -59 72 -105 70 -63 -3 -371 -121 -561
-215 -30 -15 -58 -24 -62 -20 -3 4 -9 39 -13 77 -3 39 -8 86 -10 105 -10 75
-15 117 -20 162 -3 26 -8 64 -11 85 -8 48 -11 72 -13 102 0 12 -16 38 -35 57
-27 27 -42 34 -74 34 -39 0 -50 -5 -172 -91 -43 -29 -282 -212 -404 -307 l-90
-70 -24 46 c-128 245 -350 618 -377 636 -34 22 -78 25 -114 7z"/>
</g>
</svg>
