<?xml version="1.0" standalone="no"?>
<!DOCTYPE svg PUBLIC "-//W3C//DTD SVG 20010904//EN"
 "http://www.w3.org/TR/2001/REC-SVG-20010904/DTD/svg10.dtd">
<svg version="1.0" xmlns="http://www.w3.org/2000/svg"
 width="512.000000pt" height="512.000000pt" viewBox="0 0 512.000000 512.000000"
 preserveAspectRatio="xMidYMid meet">
<metadata>
Created by potrace 1.11, written by Peter Selinger 2001-2013
</metadata>
<g transform="translate(0.000000,512.000000) scale(0.100000,-0.100000)"
fill="#000000" stroke="none">
<path d="M2521 4392 c-69 -118 -259 -450 -301 -527 -24 -44 -66 -120 -93 -170
-27 -49 -68 -126 -90 -170 -22 -44 -41 -81 -42 -83 -2 -2 -63 45 -138 105
-357 286 -776 598 -787 587 -5 -5 -11 -31 -14 -59 -3 -27 -10 -84 -15 -125 -6
-41 -13 -100 -16 -130 -3 -30 -7 -66 -10 -80 -2 -14 -7 -54 -10 -90 -3 -36 -8
-83 -10 -105 -8 -75 -14 -140 -21 -210 -10 -103 -12 -120 -13 -123 -1 -1 -19
9 -41 23 -107 67 -444 225 -630 295 -19 7 -48 19 -65 26 -58 25 -208 74 -212
70 -2 -2 4 -21 15 -43 40 -78 52 -238 36 -473 -8 -128 -11 -529 -3 -586 4 -33
10 -84 13 -114 12 -98 54 -293 86 -390 164 -496 438 -851 792 -1027 57 -28
128 -58 158 -68 30 -9 62 -19 70 -22 8 -3 24 -8 35 -9 11 -2 38 -8 60 -14 70
-18 166 -28 299 -29 l128 -2 87 -43 c121 -61 242 -100 371 -121 19 -3 48 -8
63 -11 15 -3 85 -5 155 -4 196 2 209 2 332 0 235 -4 437 41 629 140 l76 39
138 2 c121 2 169 7 313 33 124 23 309 101 430 182 320 214 560 579 693 1055
30 107 33 124 52 254 25 174 30 419 15 725 -8 156 -9 327 -3 360 11 55 22 90
39 123 11 22 17 41 15 43 -7 8 -339 -116 -465 -172 -29 -13 -55 -24 -58 -24
-11 0 -349 -172 -375 -191 -44 -31 -55 -25 -58 30 -1 28 -3 58 -5 68 -2 10 -7
61 -11 113 -4 52 -9 103 -10 112 -2 9 -6 45 -10 80 -13 126 -15 141 -20 177
-2 20 -7 59 -10 87 -3 28 -7 59 -9 70 -2 10 -7 48 -11 84 -4 36 -10 68 -14 72
-3 4 -33 -11 -66 -34 -134 -93 -608 -455 -778 -596 -43 -35 -80 -62 -81 -60
-1 1 -15 30 -31 63 -16 33 -45 89 -65 125 -20 36 -53 95 -73 133 -94 173 -117
214 -217 387 -145 251 -174 300 -180 300 -3 0 -20 -26 -39 -58z"/>
</g>
</svg>
